<svg width="128" height="128" viewBox="0 0 128 128" fill="none" xmlns="http://www.w3.org/2000/svg">
<path d="M81.5227 39.6C77.3884 37.2137 72.4755 36.5673 67.8647 37.803C63.2539 39.0387 59.3228 42.0553 56.936 46.1893L56.2693 47.344C56.1377 47.5714 56.0523 47.8225 56.0178 48.083C55.9833 48.3435 56.0005 48.6082 56.0683 48.862C56.1362 49.1159 56.2534 49.3539 56.4132 49.5624C56.5731 49.7709 56.7725 49.9459 57 50.0773L69.0907 57.0587L61.6107 70.152C56.5973 70.7893 52.1653 73.3973 48.856 77.104C49.8259 77.2617 50.7334 77.6844 51.4783 78.3253C52.2232 78.9662 52.7766 79.8005 53.0773 80.736C53.704 82.6907 55.008 83.2853 56.0587 83.296C57.1333 83.3093 58.3573 82.728 58.9387 80.9813C59.2925 79.9191 59.9716 78.9952 60.8797 78.3405C61.7879 77.6858 62.8791 77.3335 63.9987 77.3335C65.1182 77.3335 66.2094 77.6858 67.1176 78.3405C68.0257 78.9952 68.7048 79.9191 69.0587 80.9813C69.6427 82.728 70.8667 83.3093 71.9387 83.296C72.9893 83.2853 74.2933 82.6907 74.9227 80.736C75.2234 79.8005 75.7767 78.9662 76.5216 78.3253C77.2666 77.6844 78.1741 77.2617 79.144 77.104C75.8 73.3573 71.3093 70.7333 66.2293 70.1307L72.5573 59.0587L84.712 66.0773C84.9394 66.2089 85.1905 66.2944 85.451 66.3289C85.7115 66.3634 85.9762 66.3462 86.23 66.2783C86.4839 66.2105 86.7219 66.0933 86.9304 65.9334C87.1389 65.7735 87.3139 65.5742 87.4453 65.3467L88.112 64.1893C90.4985 60.0554 91.1453 55.1428 89.9101 50.532C88.6749 45.9212 85.6588 41.9899 81.5253 39.6027" fill="#787AF3"/>
<path d="M49.904 81.76C49.7706 81.3439 49.5046 80.9829 49.1467 80.7322C48.7888 80.4816 48.3586 80.3551 47.9219 80.372C47.4853 80.3889 47.0662 80.5484 46.7288 80.826C46.3913 81.1036 46.1541 81.4841 46.0533 81.9093C45.4933 84.2853 44.4347 85.5467 43.2773 86.2667C42.0507 87.0293 40.4773 87.336 38.6667 87.336C38.1362 87.336 37.6275 87.5467 37.2524 87.9218C36.8774 88.2969 36.6667 88.8056 36.6667 89.336C36.6667 89.8664 36.8774 90.3752 37.2524 90.7502C37.6275 91.1253 38.1362 91.336 38.6667 91.336C40.8587 91.336 43.28 90.976 45.3893 89.664C46.5178 88.9612 47.4833 88.0257 48.2213 86.92C52.36 91.896 59.9813 91.872 64 86.8427C68.0907 91.96 75.9093 91.896 79.992 86.656C82.2533 89.6107 85.7787 91.336 89.3333 91.336C89.8638 91.336 90.3725 91.1253 90.7475 90.7502C91.1226 90.3752 91.3333 89.8664 91.3333 89.336C91.3333 88.8056 91.1226 88.2969 90.7475 87.9218C90.3725 87.5467 89.8638 87.336 89.3333 87.336C86.1787 87.336 82.976 85.2107 81.9093 81.7787C81.783 81.373 81.5308 81.018 81.1892 80.7653C80.8476 80.5126 80.4344 80.3752 80.0095 80.3731C79.5846 80.3711 79.17 80.5044 78.826 80.7537C78.4819 81.0031 78.2262 81.3556 78.096 81.76C76.0053 88.2667 67.936 88.1573 65.896 82.0373C65.7626 81.6401 65.5079 81.2948 65.1677 81.0501C64.8275 80.8055 64.419 80.6739 64 80.6739C63.581 80.6739 63.1725 80.8055 62.8323 81.0501C62.4921 81.2948 62.2374 81.6401 62.104 82.0373C60.064 88.1573 51.9947 88.264 49.904 81.76Z" fill="#5458E0"/>
</svg>
